<?xml version="1.0" encoding="UTF-8"?>
<svg id="Layer_1" xmlns="http://www.w3.org/2000/svg" version="1.1" viewBox="0 0 800 800">
  <!-- Generator: Adobe Illustrator 29.3.1, SVG Export Plug-In . SVG Version: 2.1.0 Build 151)  -->
  <defs>
    <style>
      .st0 {
        fill: #fff;
      }
    </style>
  </defs>
  <path class="st0" d="M400,434.7c-24.2,0-47.3-7.7-66.7-22.2l-155.6-116.7v243.1c0,15.3,12.5,27.8,27.8,27.8h388.9c15.3,0,27.8-12.5,27.8-27.8v-243.1l-155.6,116.7c-19.4,14.5-42.4,22.2-66.7,22.2Z"/>
  <path class="st0" d="M366.7,368.1c19.6,14.7,47,14.7,66.7,0l172.2-129.2c.9-.7,1.8-1.3,2.8-1.8-4.1-2.4-8.8-3.7-13.9-3.7H205.6c-5.1,0-9.8,1.4-13.9,3.7.9.5,1.9,1.2,2.8,1.8l172.2,129.2Z"/>
  <path class="st0" d="M652,40H148c-59.6,0-108,48.4-108,108v504c0,59.6,48.4,108,108,108h504c59.6,0,108-48.4,108-108V148c0-59.6-48.4-108-108-108ZM677.8,538.9c0,46-37.4,83.3-83.3,83.3H205.6c-45.9,0-83.3-37.4-83.3-83.3v-277.8c0-46,37.4-83.3,83.3-83.3h388.9c46,0,83.3,37.4,83.3,83.3v277.8Z"/>
</svg>