<?xml version="1.0" encoding="UTF-8" standalone="no"?>
<!DOCTYPE svg PUBLIC "-//W3C//DTD SVG 1.1//EN" "http://www.w3.org/Graphics/SVG/1.1/DTD/svg11.dtd">
<svg width="100%" height="100%" viewBox="0 0 1080 1080" version="1.1" xmlns="http://www.w3.org/2000/svg" xmlns:xlink="http://www.w3.org/1999/xlink" xml:space="preserve" xmlns:serif="http://www.serif.com/" style="fill-rule:evenodd;clip-rule:evenodd;stroke-linejoin:round;stroke-miterlimit:2;">
    <g id="Layer1">
    </g>
    <g transform="matrix(-1.03252,0.0515638,0.0501002,1.00322,1087.51,8.63108)">
        <g id="Layer3">
            <path d="M193.293,123.051C192.042,118.623 188.547,115.249 184.174,114.247C179.801,113.246 175.245,114.776 172.288,118.24C154.334,139.252 125.44,179.427 120.11,224.843C112.277,291.59 130.916,349.409 123.78,394.095C116.644,438.782 57.055,655.792 194.053,799.903C331.05,944.014 441.301,922.168 441.301,922.168C441.301,922.168 371.427,1004.49 417.09,1023.25C462.753,1042.01 570.185,969.855 601.887,904.541C649.575,891.208 810.088,866.38 785.173,696.147C760.258,525.914 560.408,562.449 496.891,589.567C460.928,548.349 388.121,492.373 349.115,507.64C310.11,522.908 348.75,573.643 379.098,608.603C331.581,597.679 183.127,584.63 207.641,426.342C215.836,370.657 259.487,378.597 262.551,301.258C263.523,276.736 257.304,246.518 249.525,219.162C248.031,213.836 243.132,210.302 237.758,210.672C232.384,211.042 227.986,215.216 227.194,220.7C223.665,245.941 214.512,274.495 194.395,301.583C207.381,246.943 206.84,173.927 193.293,123.051ZM449.093,752.403C449.093,752.403 436.912,663.079 486.898,662.201C534.367,661.367 516.721,705.299 543.847,706.319C570.973,707.339 557.877,660.923 603.598,660.481C649.319,660.039 663.305,819.533 611.529,824.103C567.162,828.02 586.18,778.095 549.829,776.442C515.352,774.874 523.623,825.287 491.302,825.133C458.981,824.978 455.1,804.916 449.093,752.403Z" style="fill:white;"/>
        </g>
    </g>
    <g transform="matrix(-0.965847,-0.0444175,-0.0459396,0.998944,1079.83,26.417)">
        <g id="Layer2">
            <path d="M868.243,803.535C861.442,812.973 856.923,819.69 856.923,819.69C850.874,828.664 839.367,832.621 828.816,829.354C818.265,826.087 811.275,816.404 811.743,805.702C811.743,805.702 814.575,747.052 830.19,709.739C836.84,693.846 847.943,680.809 858.768,667.837C868.541,656.126 878.943,644.734 876.096,626.061C862.642,555.89 840.728,504.917 802.218,479.882C794.132,474.626 785.333,470.655 775.785,467.959C783.922,479.797 787.824,491.479 788.27,501.904C789.167,522.869 778.599,542.17 755.49,555.006C735.858,565.911 709.914,564.853 681.196,553.188C652.938,541.709 620.785,519.971 590.671,498.939C557.565,511.679 498.02,521.892 440.012,512.952C368.905,501.993 300.756,463.787 282.692,373.315C264.59,282.657 311.216,226.442 362.681,193.021C397.063,170.694 433.589,159.063 452.196,154.134C467.372,124.909 513.661,49.313 593.649,32.312C607.463,29.376 617.807,31.949 625.58,36.562C636.372,42.966 643.92,55.05 645.245,72.066C646.594,89.408 640.578,114.334 634.273,134.803C691.299,134.574 799.171,152.153 903.513,267.526C1050.82,430.407 1011.46,626.957 1000.58,683.061C989.78,738.77 992.771,780.23 956.867,846.133C916.69,919.88 865.487,934.037 865.487,934.037C855.37,937.163 844.321,933.657 838.087,925.344C831.853,917.03 831.842,905.787 838.06,897.462C850.466,880.853 857.713,856.446 863.072,831.418C865.06,822.134 866.759,812.753 868.243,803.535ZM857.999,911.385C857.999,911.385 900.71,898.187 935.106,835.051C969.503,771.914 966.059,732.051 976.405,678.68C986.75,625.309 1025.13,438.128 884.998,283.18C744.864,128.231 598.818,161.781 598.818,161.781C598.818,161.781 648.393,45.025 598.929,55.538C510.623,74.307 469.464,174.5 469.464,174.5C469.464,174.5 275.484,211.764 306.841,368.807C338.198,525.85 545.438,499.319 593.317,471.429C646.33,508.582 708.49,553.687 743.238,534.386C777.986,515.085 770.228,474.226 706.89,443.206C818.305,423.596 875.427,491.695 900.35,622.09C907.515,666.83 867.309,684.441 852.989,718.659C838.67,752.877 836.317,806.706 836.317,806.706C836.317,806.706 884.829,734.733 904.428,727.598C895.834,762.38 893.392,864.001 857.999,911.385Z" style="fill:white;"/>
        </g>
    </g>
    <g transform="matrix(0.998944,0.0459396,-0.0507097,1.10267,29.3271,-74.6742)">
        <g id="Layer4">
            <path d="M476.031,269.144C503.377,268.713 497.178,294.37 519.839,292.804C542.499,291.237 552.5,246.1 591.574,264.561C619.008,277.522 591.589,320.332 582.983,328.272C574.377,336.211 567.477,344.523 584.209,352.658C600.94,360.794 624.979,384.395 597.962,402.85C570.946,421.305 538.77,382.467 520.655,384.606C502.54,386.745 516.352,410.986 481.847,415.305C447.343,419.625 439.261,373.537 438.249,346.744C437.237,319.952 435.591,269.781 476.031,269.144Z" style="fill:white;"/>
        </g>
    </g>
</svg>
