<?xml version="1.0" encoding="UTF-8" standalone="no"?>
<!DOCTYPE svg PUBLIC "-//W3C//DTD SVG 1.1//EN" "http://www.w3.org/Graphics/SVG/1.1/DTD/svg11.dtd">
<svg width="100%" height="100%" viewBox="0 0 1080 1080" version="1.1" xmlns="http://www.w3.org/2000/svg" xmlns:xlink="http://www.w3.org/1999/xlink" xml:space="preserve" xmlns:serif="http://www.serif.com/" style="fill-rule:evenodd;clip-rule:evenodd;stroke-linejoin:round;stroke-miterlimit:2;">
    <g transform="matrix(1.09635,0,0,1.09635,-58.2286,-101.197)">
        <g id="Layer5">
            <circle cx="545.419" cy="582.504" r="486.446"/>
            <path d="M545.419,93.833C275.715,93.833 56.749,312.799 56.749,582.504C56.749,852.208 275.715,1071.17 545.419,1071.17C815.123,1071.17 1034.09,852.208 1034.09,582.504C1034.09,312.799 815.123,93.833 545.419,93.833ZM545.419,96.058C813.896,96.058 1031.87,314.027 1031.87,582.504C1031.87,850.98 813.896,1068.95 545.419,1068.95C276.942,1068.95 58.973,850.98 58.973,582.504C58.973,314.027 276.942,96.058 545.419,96.058Z" style="fill:white;"/>
        </g>
    </g>
    <g transform="matrix(-0.912038,0.0455468,0.044254,0.88615,1014.19,64.0474)">
        <g id="Layer3">
            <path d="M194.132,126.294C192.778,121.193 188.8,117.277 183.788,116.113C178.777,114.949 173.55,116.727 170.199,120.735C152.165,142.323 125.237,181.158 120.11,224.843C112.277,291.59 130.916,349.409 123.78,394.095C116.644,438.782 57.055,655.792 194.053,799.903C331.05,944.014 441.301,922.168 441.301,922.168C441.301,922.168 371.427,1004.49 417.09,1023.25C462.753,1042.01 570.185,969.855 601.887,904.541C649.575,891.208 810.088,866.38 785.173,696.147C760.258,525.914 560.408,562.449 496.891,589.567C460.928,548.349 388.121,492.373 349.115,507.64C310.11,522.908 348.75,573.643 379.098,608.603C331.581,597.679 183.127,584.63 207.641,426.342C215.836,370.657 259.487,378.597 262.551,301.258C263.441,278.79 258.296,251.542 251.444,226.093C249.844,220.085 244.418,216.016 238.371,216.288C232.324,216.56 227.264,221.101 226.179,227.23C222.024,250.801 212.796,276.806 194.395,301.583C207.107,248.094 206.857,176.994 194.132,126.294ZM449.093,752.403C449.093,752.403 436.912,663.079 486.898,662.201C534.367,661.367 516.721,705.299 543.847,706.319C570.973,707.339 557.877,660.923 603.598,660.481C649.319,660.039 663.305,819.533 611.529,824.103C567.162,828.02 586.18,778.095 549.829,776.442C515.352,774.874 523.623,825.287 491.302,825.133C458.981,824.978 455.1,804.916 449.093,752.403Z" style="fill:white;"/>
        </g>
    </g>
    <g transform="matrix(-0.853141,-0.0392344,-0.0405789,0.882377,1007.4,79.7579)">
        <g id="Layer2">
            <path d="M862.601,817.098L859.645,821.405C852.797,831.565 839.77,836.044 827.825,832.346C815.88,828.648 807.967,817.685 808.497,805.569C808.497,805.569 811.392,746.282 827.178,708.561C833.95,692.377 845.216,679.074 856.24,665.864C865.458,654.818 875.545,644.179 872.891,626.582C859.635,557.475 838.333,507.146 800.405,482.489C794.964,478.953 789.191,476.021 783.074,473.687C788.481,483.515 791.145,493.085 791.517,501.774C792.461,523.843 781.435,544.218 757.108,557.73C736.717,569.057 709.765,568.2 679.937,556.084C651.928,544.706 620.099,523.334 590.187,502.474C556.292,515.064 497.153,524.94 439.5,516.054C367.152,504.904 297.881,465.961 279.502,373.91C261.08,281.649 308.494,224.425 360.869,190.413C394.778,168.394 430.75,156.663 449.973,151.472C466.094,120.928 512.951,46.247 592.951,29.244C607.807,26.086 618.92,28.924 627.28,33.885C638.837,40.743 647.066,53.608 648.485,71.83C649.771,88.355 644.485,111.674 638.56,131.656C697.255,132.31 803.327,151.976 905.959,265.458C1054.21,429.387 1014.72,627.175 1003.77,683.639C992.914,739.658 995.845,781.329 959.742,847.597C918.801,922.747 866.476,937.029 866.476,937.029C855.023,940.568 842.514,936.6 835.456,927.188C828.398,917.776 828.386,905.047 835.426,895.623C847.6,879.323 854.631,855.343 859.89,830.781C860.864,826.233 861.769,821.66 862.601,817.098ZM857.999,911.385C857.999,911.385 900.71,898.187 935.106,835.051C969.503,771.914 966.059,732.051 976.405,678.68C986.75,625.309 1025.13,438.128 884.998,283.18C744.864,128.231 598.818,161.781 598.818,161.781C598.818,161.781 648.393,45.025 598.929,55.538C510.623,74.307 469.464,174.5 469.464,174.5C469.464,174.5 275.484,211.764 306.841,368.807C338.198,525.85 545.438,499.319 593.317,471.429C646.33,508.582 708.49,553.687 743.238,534.386C777.986,515.085 770.228,474.226 706.89,443.206C818.305,423.596 875.427,491.695 900.35,622.09C907.515,666.83 867.309,684.441 852.989,718.659C838.67,752.877 836.317,806.706 836.317,806.706C836.317,806.706 884.829,734.733 904.428,727.598C895.834,762.38 893.392,864.001 857.999,911.385Z" style="fill:white;"/>
        </g>
    </g>
    <g transform="matrix(0.882377,0.0405789,-0.0447923,0.973997,79.4812,-9.53699)">
        <g id="Layer4">
            <path d="M476.031,269.144C503.377,268.713 497.178,294.37 519.839,292.804C542.499,291.237 552.5,246.1 591.574,264.561C619.008,277.522 591.589,320.332 582.983,328.272C574.377,336.211 567.477,344.523 584.209,352.658C600.94,360.794 624.979,384.395 597.962,402.85C570.946,421.305 538.77,382.467 520.655,384.606C502.54,386.745 516.352,410.986 481.847,415.305C447.343,419.625 439.261,373.537 438.249,346.744C437.237,319.952 435.591,269.781 476.031,269.144Z" style="fill:white;"/>
        </g>
    </g>
</svg>
