<?xml version="1.0" encoding="UTF-8"?><svg id="Layer_1" xmlns="http://www.w3.org/2000/svg" viewBox="0 0 800 800"><defs><style>.cls-1{fill:#fff;}</style></defs><path class="cls-1" d="M298.4,240.34c-2.04-5.28-5.16-10.08-9.14-14.1-3.99-4.02-8.76-7.17-14.03-9.26-5.26-2.09-10.9-3.06-16.56-2.86-5.72-.3-11.43.6-16.78,2.65-5.35,2.04-10.21,5.18-14.27,9.21-4.06,4.03-7.24,8.87-9.32,14.2-2.09,5.33-3.03,11.04-2.78,16.76-.24,5.66.69,11.3,2.73,16.58,2.04,5.28,5.16,10.08,9.14,14.1,3.99,4.02,8.76,7.17,14.03,9.26,5.26,2.09,10.9,3.06,16.56,2.86,5.72.3,11.43-.6,16.78-2.65,5.35-2.04,10.21-5.18,14.27-9.21,4.06-4.03,7.24-8.87,9.32-14.2,2.08-5.33,3.03-11.04,2.78-16.76.24-5.66-.69-11.3-2.73-16.58Z"/><path class="cls-1" d="M494.63,330.01c-14.88-.4-29.58,3.32-42.48,10.75-12.9,7.43-23.49,18.29-30.61,31.36v-34.8h-80.05v248.15h80.05v-141.3c-.42-6.73.52-13.48,2.78-19.84,2.94-8.48,8.44-15.84,15.73-21.07,7.29-5.23,16.02-8.08,24.99-8.16,28.89,0,40.37,22.27,40.37,54.64v135.73h81.44v-146.52c0-74.13-39.68-108.93-92.23-108.93Z"/><path class="cls-1" d="M652,40H148c-59.6,0-108,48.4-108,108v504c0,59.6,48.4,108,108,108h504c59.6,0,108-48.4,108-108V148c0-59.6-48.4-108-108-108ZM679.44,630.36c.29,12.2-4.22,24.01-12.55,32.93-8.33,8.91-19.82,14.21-32,14.75H170.27c-12.53-.35-24.46-5.49-33.33-14.36-8.87-8.86-14-20.79-14.35-33.32V164.69c.27-5.99,1.71-11.87,4.26-17.3,2.54-5.43,6.13-10.3,10.56-14.35,4.43-4.04,9.61-7.17,15.25-9.2s11.62-2.94,17.61-2.66h464.62c5.83-.24,11.64.72,17.08,2.81,5.44,2.09,10.4,5.27,14.57,9.34,4.17,4.07,7.47,8.96,9.69,14.35,2.22,5.39,3.31,11.18,3.21,17.01v465.67Z"/><rect class="cls-1" x="215.51" y="337.32" width="81.09" height="248.15"/></svg>