<?xml version="1.0" encoding="UTF-8"?><svg id="Layer_1" xmlns="http://www.w3.org/2000/svg" viewBox="0 0 800 800"><defs><style>.cls-1{fill:#fff;}</style></defs><path class="cls-1" d="M634.89,121.19H170.27c-5.99-.28-11.97.62-17.61,2.66-5.64,2.04-10.82,5.16-15.25,9.2-4.43,4.04-8.02,8.92-10.56,14.35-2.54,5.43-3.99,11.31-4.26,17.3v465.67c.35,12.53,5.49,24.46,14.35,33.32,8.87,8.87,20.79,14,33.33,14.36h464.62c12.18-.54,23.67-5.84,32-14.75,8.33-8.91,12.83-20.73,12.55-32.93V164.69c.1-5.83-.99-11.62-3.21-17.01-2.22-5.39-5.51-10.27-9.69-14.35-4.17-4.07-9.13-7.25-14.57-9.34-5.44-2.09-11.26-3.04-17.08-2.81ZM296.6,585.46h-81.09v-248.15h81.09v248.15ZM257.97,299.73c-5.66.2-11.3-.78-16.56-2.86-5.26-2.09-10.04-5.24-14.03-9.26-3.99-4.02-7.1-8.82-9.14-14.1-2.04-5.28-2.97-10.93-2.73-16.58-.25-5.72.7-11.43,2.78-16.76,2.09-5.33,5.26-10.17,9.32-14.2,4.06-4.03,8.92-7.17,14.27-9.21,5.35-2.04,11.06-2.94,16.78-2.65,5.66-.2,11.3.78,16.56,2.86,5.26,2.09,10.04,5.24,14.03,9.26,3.99,4.02,7.1,8.82,9.14,14.1,2.04,5.28,2.97,10.93,2.73,16.58.25,5.72-.7,11.43-2.78,16.76-2.09,5.33-5.26,10.17-9.32,14.2-4.06,4.03-8.92,7.17-14.27,9.21-5.35,2.04-11.06,2.94-16.78,2.65ZM586.86,585.46h-81.44v-135.73c0-32.37-11.49-54.64-40.37-54.64-8.97.08-17.7,2.93-24.99,8.16-7.29,5.23-12.78,12.6-15.73,21.07-2.26,6.36-3.21,13.1-2.78,19.84v141.3h-80.05v-248.15h80.05v34.8c7.12-13.08,17.71-23.93,30.61-31.36,12.9-7.43,27.6-11.15,42.48-10.75,52.55,0,92.23,34.8,92.23,108.93v146.52Z"/></svg>